<mxfile host="www.draw.io" modified="2019-10-26T15:26:26.870Z" agent="Mozilla/5.0 (Macintosh; Intel Mac OS X 10_12_6) AppleWebKit/537.36 (KHTML, like Gecko) Chrome/77.0.3865.120 Safari/537.36" etag="onKimitrUHU98WWceXAn" version="12.1.7" type="github" pages="1">
  <diagram id="aMfh76vUlQ8AYSwZjabr" name="第 1 页">
    <mxGraphModel dx="1356" dy="757" grid="1" gridSize="10" guides="1" tooltips="1" connect="1" arrows="1" fold="1" page="1" pageScale="1" pageWidth="827" pageHeight="1169" math="0" shadow="0">
      <root>
        <mxCell id="0"/>
        <mxCell id="1" parent="0"/>
        <mxCell id="2MqLXOBYYgQCPvopz6Hl-5" style="edgeStyle=orthogonalEdgeStyle;rounded=0;orthogonalLoop=1;jettySize=auto;html=1;exitX=1;exitY=0.5;exitDx=0;exitDy=0;fontFamily=Lucida Console;fontSize=18;" edge="1" parent="1" source="2MqLXOBYYgQCPvopz6Hl-2" target="2MqLXOBYYgQCPvopz6Hl-3">
          <mxGeometry relative="1" as="geometry"/>
        </mxCell>
        <mxCell id="2MqLXOBYYgQCPvopz6Hl-2" value="State" style="rounded=1;whiteSpace=wrap;html=1;fontFamily=Lucida Console;fontSize=18;" vertex="1" parent="1">
          <mxGeometry x="160" y="220" width="120" height="60" as="geometry"/>
        </mxCell>
        <mxCell id="2MqLXOBYYgQCPvopz6Hl-6" style="edgeStyle=orthogonalEdgeStyle;rounded=0;orthogonalLoop=1;jettySize=auto;html=1;entryX=0.45;entryY=1.083;entryDx=0;entryDy=0;entryPerimeter=0;fontFamily=Lucida Console;fontSize=18;dashed=1;" edge="1" parent="1" source="2MqLXOBYYgQCPvopz6Hl-3" target="2MqLXOBYYgQCPvopz6Hl-2">
          <mxGeometry relative="1" as="geometry">
            <Array as="points">
              <mxPoint x="530" y="330"/>
              <mxPoint x="214" y="330"/>
            </Array>
          </mxGeometry>
        </mxCell>
        <mxCell id="2MqLXOBYYgQCPvopz6Hl-7" value="modify" style="text;html=1;resizable=0;points=[];align=center;verticalAlign=middle;labelBackgroundColor=#ffffff;fontSize=18;fontFamily=Lucida Console;" vertex="1" connectable="0" parent="2MqLXOBYYgQCPvopz6Hl-6">
          <mxGeometry x="-0.1241" y="2" relative="1" as="geometry">
            <mxPoint x="-30" y="-2" as="offset"/>
          </mxGeometry>
        </mxCell>
        <mxCell id="2MqLXOBYYgQCPvopz6Hl-3" value="Reaction" style="rounded=1;whiteSpace=wrap;html=1;fontFamily=Lucida Console;fontSize=18;" vertex="1" parent="1">
          <mxGeometry x="460" y="220" width="120" height="60" as="geometry"/>
        </mxCell>
      </root>
    </mxGraphModel>
  </diagram>
</mxfile>
